<svg width="318" height="240" viewBox="0 0 318 240" fill="none" xmlns="http://www.w3.org/2000/svg">
<g clip-path="url(#clip0_1_264)">
<path d="M164.675 103.583C164.675 105.961 162.772 107.877 160.411 107.877C158.049 107.877 156.146 105.961 156.146 103.583C156.146 101.204 157.983 99.2883 160.411 99.2883C162.838 99.3544 164.675 101.27 164.675 103.583ZM147.093 112.237C147.093 112.634 147.093 113.294 147.093 113.294C147.093 113.294 145.059 110.652 140.729 110.652C133.578 110.652 128.002 116.135 128.002 123.733C128.002 131.264 133.513 136.814 140.729 136.814C145.125 136.814 147.093 134.105 147.093 134.105V135.228C147.093 135.757 147.487 136.153 148.011 136.153H153.325V111.312C153.325 111.312 148.471 111.312 148.011 111.312C147.487 111.312 147.093 111.775 147.093 112.237ZM147.093 128.159C146.109 129.613 144.141 130.868 141.779 130.868C137.58 130.868 134.366 128.225 134.366 123.733C134.366 119.24 137.58 116.598 141.779 116.598C144.075 116.598 146.174 117.919 147.093 119.306V128.159ZM157.262 111.312H163.56V136.153H157.262V111.312ZM251.338 110.652C247.009 110.652 244.975 113.294 244.975 113.294V99.3544H238.677V136.153C238.677 136.153 243.531 136.153 243.991 136.153C244.516 136.153 244.909 135.691 244.909 135.228V134.105C244.909 134.105 246.943 136.814 251.273 136.814C258.424 136.814 264 131.264 264 123.733C264 116.201 258.424 110.652 251.338 110.652ZM250.289 130.802C247.861 130.802 245.959 129.547 244.975 128.093V119.24C245.959 117.919 248.058 116.532 250.289 116.532C254.487 116.532 257.702 119.174 257.702 123.667C257.702 128.159 254.487 130.802 250.289 130.802ZM235.397 121.42V136.219H229.098V122.147C229.098 118.051 227.786 116.399 224.244 116.399C222.341 116.399 220.373 117.39 219.127 118.844V136.153H212.829V111.312H217.815C218.339 111.312 218.733 111.775 218.733 112.237V113.294C220.57 111.378 222.997 110.652 225.425 110.652C228.18 110.652 230.476 111.444 232.313 113.03C234.544 114.88 235.397 117.258 235.397 121.42ZM197.543 110.652C193.213 110.652 191.179 113.294 191.179 113.294V99.3544H184.881V136.153C184.881 136.153 189.736 136.153 190.195 136.153C190.72 136.153 191.113 135.691 191.113 135.228V134.105C191.113 134.105 193.147 136.814 197.477 136.814C204.628 136.814 210.204 131.264 210.204 123.733C210.27 116.201 204.694 110.652 197.543 110.652ZM196.493 130.802C194.066 130.802 192.163 129.547 191.179 128.093V119.24C192.163 117.919 194.263 116.532 196.493 116.532C200.692 116.532 203.906 119.174 203.906 123.667C203.906 128.159 200.692 130.802 196.493 130.802ZM179.436 110.652C181.338 110.652 182.322 110.982 182.322 110.982V116.862C182.322 116.862 177.074 115.078 173.794 118.844V136.219H167.496V111.312C167.496 111.312 172.351 111.312 172.81 111.312C173.335 111.312 173.728 111.775 173.728 112.237V113.294C174.909 111.907 177.468 110.652 179.436 110.652ZM114.028 133.907C113.7 133.114 113.372 132.255 113.044 131.529C112.519 130.339 111.994 129.216 111.535 128.159L111.47 128.093C106.943 118.183 102.088 108.141 96.971 98.2312L96.7742 97.8348C96.2494 96.8438 95.7246 95.7868 95.1997 94.7297C94.5437 93.5405 93.8876 92.2853 92.838 91.0961C90.7386 88.4535 87.7208 87 84.5062 87C81.226 87 78.2738 88.4535 76.1088 90.964C75.1247 92.1532 74.4031 93.4084 73.747 94.5976C73.2222 95.6547 72.6974 96.7117 72.1725 97.7027L71.9757 98.0991C66.9242 108.009 62.0038 118.051 57.4771 127.961L57.4115 128.093C56.9523 129.15 56.4275 130.273 55.9026 131.462C55.5746 132.189 55.2466 132.982 54.9186 133.841C54.0657 136.285 53.8033 138.598 54.1313 140.976C54.853 145.931 58.1332 150.093 62.6599 151.943C64.3656 152.67 66.1369 153 67.9739 153C68.4987 153 69.1547 152.934 69.6796 152.868C71.8445 152.604 74.0751 151.877 76.24 150.622C78.9298 149.102 81.4884 146.922 84.375 143.751C87.2616 146.922 89.8858 149.102 92.5099 150.622C94.6749 151.877 96.9054 152.604 99.0704 152.868C99.5952 152.934 100.251 153 100.776 153C102.613 153 104.45 152.67 106.09 151.943C110.682 150.093 113.897 145.865 114.619 140.976C115.143 138.664 114.881 136.351 114.028 133.907ZM84.4406 137.342C80.8979 132.85 78.6018 128.622 77.8145 125.054C77.4865 123.535 77.4209 122.213 77.6177 121.024C77.7489 119.967 78.1426 119.042 78.6674 118.249C79.9139 116.465 82.0132 115.342 84.4406 115.342C86.868 115.342 89.0329 116.399 90.2138 118.249C90.7386 119.042 91.1322 119.967 91.2635 121.024C91.4603 122.213 91.3947 123.601 91.0666 125.054C90.2794 128.556 87.9832 132.784 84.4406 137.342ZM110.617 140.447C110.158 143.883 107.861 146.856 104.647 148.177C103.072 148.838 101.367 149.036 99.6608 148.838C98.0207 148.64 96.3806 148.111 94.6749 147.12C92.3131 145.799 89.9514 143.751 87.196 140.712C91.5259 135.36 94.15 130.471 95.1341 126.111C95.5933 124.063 95.659 122.213 95.4621 120.495C95.1997 118.844 94.6093 117.324 93.6908 116.003C91.6571 113.03 88.2456 111.312 84.4406 111.312C80.6355 111.312 77.2241 113.096 75.1903 116.003C74.2719 117.324 73.6814 118.844 73.419 120.495C73.1566 122.213 73.2222 124.129 73.747 126.111C74.7311 130.471 77.4209 135.426 81.6852 140.778C78.9954 143.817 76.568 145.865 74.2063 147.186C72.5006 148.177 70.8605 148.706 69.2203 148.904C67.449 149.102 65.7433 148.838 64.2344 148.243C61.0198 146.922 58.7236 143.949 58.2644 140.514C58.0676 138.862 58.1988 137.21 58.8548 135.36C59.0516 134.7 59.3797 134.039 59.7077 133.246C60.1669 132.189 60.6918 131.066 61.2166 129.943L61.2822 129.811C65.8089 119.967 70.6636 109.925 75.7152 100.147L75.912 99.7507C76.4368 98.7598 76.9617 97.7027 77.4865 96.7117C78.0113 95.6547 78.6018 94.6637 79.3234 93.8048C80.7011 92.2192 82.5381 91.3604 84.5718 91.3604C86.6055 91.3604 88.4425 92.2192 89.8202 93.8048C90.5418 94.6637 91.1322 95.6547 91.6571 96.7117C92.1819 97.7027 92.7067 98.7598 93.2316 99.7507L93.4284 100.147C98.4143 109.991 103.269 120.033 107.796 129.877V129.943C108.321 131 108.78 132.189 109.305 133.246C109.633 134.039 109.961 134.7 110.158 135.36C110.682 137.078 110.879 138.73 110.617 140.447Z" fill="#9A9B9B"/>
</g>
<defs>
<clipPath id="clip0_1_264">
<rect width="210" height="66" fill="white" transform="translate(54 87)"/>
</clipPath>
</defs>
</svg>
