<svg width="166" height="166" viewBox="0 0 166 166" fill="none" xmlns="http://www.w3.org/2000/svg">
<path d="M83.1921 0C37.4814 0 0.605652 36.8758 0.605652 82.5864C0.605652 128.297 37.4814 165.173 83.1921 165.173C128.903 165.173 165.779 128.297 165.779 82.5864C165.779 36.8758 128.519 0 83.1921 0ZM160.401 82.5864C160.401 125.224 125.83 159.795 83.1921 159.795C40.5544 159.795 5.98337 125.224 5.98337 82.5864C5.98337 39.9488 40.5544 5.37772 83.1921 5.37772C125.83 5.37772 160.401 39.9488 160.401 82.5864Z" fill="#9A9B9B"/>
<path d="M83.1921 33.8027V36.4916C108.544 36.4916 129.671 57.2342 129.671 82.9705H132.36C131.976 55.6977 110.081 33.8027 83.1921 33.8027ZM83.1921 129.065C57.84 129.065 36.7132 108.323 36.7132 82.5863H34.0244C34.0244 109.475 55.9194 131.37 82.808 131.37" fill="#9A9B9B"/>
<path d="M122.747 47.5222C123.9 48.6746 125.436 50.5952 126.204 51.7475L143.106 41.3762C142.338 40.2239 140.801 38.6874 140.033 37.535L129.277 44.4492L128.509 45.2175L128.893 44.4492L133.503 35.2303L130.43 31.7731L121.211 36.3826L120.443 36.7667L121.211 35.9985L128.125 25.6272C126.973 24.4748 125.82 23.7066 124.284 22.5542L113.528 39.0715C115.065 40.2239 116.601 41.7603 117.754 42.5286L127.741 37.535L128.509 37.1509L128.125 37.9191L122.747 47.5222Z" fill="#9A9B9B"/>
<path d="M84.7191 26.7795L89.3286 16.4082L89.7127 15.6399V16.4082L90.0968 29.8525C91.6333 29.8525 93.1698 30.2366 95.0904 30.6207L94.3221 10.6463C92.0174 10.2622 89.7127 10.2622 87.4079 10.2622L82.7985 21.4018L78.189 10.2622C75.8843 10.2622 73.5795 10.6463 71.2748 10.6463L70.5065 30.6207C72.043 30.2366 73.9636 30.2366 75.5001 29.8525L75.8843 16.4082L80.4937 26.3954H84.7191V26.7795Z" fill="#9A9B9B"/>
<path d="M47.8433 42.5287C50.5322 39.8398 52.0686 36.3827 49.3798 33.6938C47.8433 32.1573 45.5386 31.7732 43.6179 32.5415H43.2338C43.6179 31.7732 43.6179 29.0844 41.6973 27.5479C40.545 26.7796 39.3926 26.3955 37.8561 26.3955C35.5514 26.7796 33.6307 28.3161 28.253 34.078C26.7165 35.9986 24.4118 38.6874 22.8753 40.2239L37.0878 53.6682C42.0814 48.6746 44.0021 46.754 47.8433 42.5287ZM29.0213 39.4557C31.7101 35.9986 34.7831 32.9256 36.3196 31.3891C36.7037 31.005 37.0879 30.6209 37.8561 30.6209C38.6243 30.2367 39.7767 31.005 40.1608 32.1574C40.545 32.9256 39.7767 34.078 39.0085 34.8462C37.472 36.3827 32.0943 42.5287 32.0943 42.5287L29.0213 39.4557ZM34.7831 44.8334C34.7831 44.8334 40.1608 39.0716 42.0815 37.1509C42.8497 36.3827 43.2338 35.9986 43.6179 35.6145C44.3862 35.2303 44.7703 35.2303 45.5386 35.6145C46.3068 35.9986 46.3068 36.7668 46.3068 37.5351C46.3068 38.3033 45.5386 39.0716 44.7703 39.8398C44.0021 40.6081 37.472 47.5223 37.472 47.5223L34.7831 44.8334Z" fill="#9A9B9B"/>
<path d="M83.1921 33.8027V82.5863H34.0244C34.0244 55.6977 55.9194 33.8027 83.1921 33.8027Z" fill="#9A9B9B"/>
<path d="M131.976 82.5864C131.976 109.475 110.081 131.37 83.1921 131.37V82.5864H131.976Z" fill="#9A9B9B"/>
</svg>
