<svg width="301" height="71" viewBox="0 0 301 71" fill="none" xmlns="http://www.w3.org/2000/svg">
<path d="M36.6368 0.700195H265.192C273.144 0.700195 280.846 3.40085 287.098 8.35206C295.2 14.7536 300.201 24.9061 300.151 35.2586C300.301 43.8107 297.1 52.3127 291.449 58.6643C284.947 66.1161 275.145 70.4672 265.292 70.4672H43.8886C37.6871 70.4172 31.2855 70.8673 25.2841 69.0168C13.9813 65.816 4.67907 56.4638 1.5283 45.111C-0.922292 36.959 -0.0220729 27.9568 3.67883 20.305C8.47999 10.3525 18.2324 3.00076 29.135 1.15031C31.5856 0.800224 34.1362 0.700195 36.6368 0.700195Z" fill="#9A9B9B"/>
<path d="M259.041 17.2042C267.893 14.6035 278.096 19.4547 281.796 27.9068C284.497 33.6081 284.097 40.6098 280.746 46.0111C277.195 52.0626 270.144 55.8635 263.092 55.3634C253.99 55.1634 245.888 47.5615 244.787 38.5593C243.337 29.2071 249.839 19.5047 259.041 17.2042Z" fill="white"/>
<path d="M35.4365 13.9534C43.9386 12.453 53.0908 16.6541 57.6419 24.0058C59.8425 27.6067 56.6417 32.908 52.3907 32.3079C49.9901 32.6079 48.3397 30.7575 47.0394 29.0071C43.9386 25.1561 37.9872 24.1059 33.7361 26.6065C29.4351 28.907 26.9845 34.6084 28.7349 39.2595C30.0852 43.7606 34.7864 47.1115 39.4875 46.6614C43.2885 46.8114 46.1892 44.0607 48.5897 41.4601C51.7405 38.4094 57.5419 41.01 57.792 45.261C58.2421 49.0119 54.8913 51.6626 52.3407 53.8131C43.9386 60.4147 30.8854 59.5645 23.3836 51.9626C15.7318 44.7609 14.4314 31.9578 20.5829 23.4057C23.9838 18.3545 29.4851 14.9036 35.4365 13.9534ZM78.297 14.0534C89.6997 11.7029 101.903 20.0049 104.003 31.4577C106.904 43.3105 98.0018 56.2137 86.0488 57.9641C74.8461 60.2147 62.9432 52.2627 60.5426 41.11C57.2418 29.1571 66.094 15.9039 78.297 14.0534ZM80.3975 25.4062C75.1462 26.1564 70.9952 31.3076 71.4453 36.6589C71.6453 42.1102 76.6966 46.9614 82.1979 46.6614C88.2494 46.9614 93.5007 41.01 92.8005 35.0585C92.5004 29.0571 86.2989 24.2059 80.3975 25.4062ZM108.004 19.3047C107.804 14.9036 113.656 11.9529 117.006 14.8036L130.71 28.3569L143.813 15.2537C145.413 13.6533 148.064 13.1032 150.164 14.1535C152.365 15.1537 153.765 17.6043 153.615 19.9549V52.5128C153.665 55.8636 150.364 58.7643 147.014 58.2142C144.213 57.9141 141.962 55.3134 142.012 52.5128V33.4081L134.611 40.8099C132.71 42.6604 129.559 42.9104 127.409 41.26C124.558 38.9095 122.208 36.0088 119.457 33.5081L119.407 52.8629C119.407 56.2137 115.906 58.9643 112.655 58.2142C110.005 57.7641 107.754 55.2134 108.004 52.5128V19.3047ZM158.416 19.5047C158.316 16.254 161.317 13.4533 164.518 13.6533H187.624C189.724 13.6533 191.775 14.9536 192.725 16.8541C194.575 20.1049 192.125 24.9561 188.274 25.0561L169.969 25.1061V32.1578H185.423C189.074 32.0078 192.325 35.7587 191.274 39.3596C190.724 42.0102 188.074 43.9107 185.373 43.8107C180.222 43.8607 175.07 43.8107 169.969 43.8107L169.919 52.9629C169.719 56.4637 165.818 59.1144 162.517 57.9641C160.867 57.564 159.817 56.1637 158.817 54.9134C158.116 51.7126 158.466 48.4118 158.416 45.161V19.5047ZM195.776 20.0549C195.175 16.254 199.226 12.7531 202.877 13.8534C205.428 14.6036 206.878 16.9541 208.729 18.6045L217.081 26.8565L228.984 15.0537C231.234 13.0032 234.935 13.3032 236.936 15.5538C238.986 17.7043 238.936 21.4052 236.785 23.4557L222.832 37.5091V52.5128C222.982 55.2134 220.832 57.664 218.231 58.1642C214.83 58.9643 211.179 55.9636 211.429 52.4628V37.5091L200.027 26.0063C198.226 24.2559 195.876 22.6555 195.776 20.0549Z" fill="white"/>
</svg>
