<svg width="300" height="41" viewBox="0 0 300 41" fill="none" xmlns="http://www.w3.org/2000/svg">
<path d="M216.987 13.6696C217.576 12.325 217.828 10.8684 217.828 9.66396C217.828 4.62194 213.457 0.672363 207.882 0.672363H193.65V38.6556H211.888C220.041 38.6556 224.328 32.157 224.328 25.7424C224.328 20.9245 221.834 15.8264 216.987 13.6696ZM209.311 12.5211H200.234V7.14295H207.658C209.479 7.14295 211.3 8.06732 211.3 9.86004C211.3 10.1121 211.244 12.5211 209.311 12.5211ZM200.234 18.9077H211.468C215.755 18.9077 217.66 22.297 217.66 25.6584C217.66 30.4763 214.326 32.185 211.468 32.185H200.234V18.9077Z" fill="#9A9B9B"/>
<path d="M119.742 38.7115L131.313 10.1401L142.604 38.7115H149.888L135.011 1.06445H127.671L112.458 38.7115H119.742Z" fill="#9A9B9B"/>
<path d="M250.635 38.6837H260.945L241.39 19.1038L259.46 1.03662H249.15L236.207 13.9498V1.03662H228.922V38.6837H236.207V24.2859L236.235 24.2579L250.635 38.6837Z" fill="#9A9B9B"/>
<path d="M186.029 29.524L183.031 21.961L174.879 1.26074H167.538L158.937 22.5212L155.996 29.8322L152.325 38.9078H159.638L161.487 34.314C164.26 35.8266 167.482 36.6949 170.9 36.6949C174.43 36.6949 177.736 35.7705 180.594 34.1459L182.471 38.9078H189.755L186.029 29.524ZM170.9 30.3084C168.323 30.3084 165.913 29.5801 163.896 28.3196L171.18 10.3084L178.213 28.1235C176.139 29.524 173.618 30.3084 170.9 30.3084Z" fill="#9A9B9B"/>
<path d="M296.218 29.524L293.22 21.961L285.039 1.26074H277.727L269.126 22.5212L266.184 29.8322L262.514 38.8798H269.826L271.675 34.286C274.449 35.7986 277.671 36.6669 281.089 36.6669C284.619 36.6669 287.925 35.7425 290.783 34.1179L292.66 38.8798H299.944L296.218 29.524ZM281.089 30.3084C278.511 30.3084 276.102 29.5801 274.085 28.3196L281.369 10.3084L288.401 28.1235C286.328 29.524 283.806 30.3084 281.089 30.3084Z" fill="#9A9B9B"/>
<path d="M7.22825 31.4284V27.4228H18.2947V20.1119H7.22825V8.3752H24.7946V1.09229H-0.0560226V38.7393H25.8872V31.4284H7.22825Z" fill="#9A9B9B"/>
<path d="M53.3713 38.7395H63.6814L44.0979 19.1597L62.1685 1.06445H51.8584L38.9148 14.0056V1.06445H31.6306V38.7395H38.9148V24.3138H38.9429L53.3713 38.7395Z" fill="#9A9B9B"/>
<path d="M82.6765 0C71.6941 0 62.7568 8.59944 62.7568 19.1877C62.7568 20.6443 62.9249 22.0448 63.2331 23.4174H70.1532C69.6489 22.1008 69.3967 20.6723 69.3967 19.1877C69.3967 12.2129 75.3642 6.52661 82.6765 6.52661C89.9608 6.52661 95.9003 12.2129 95.9003 19.1877C95.9003 20.6723 95.6201 22.1008 95.1438 23.4174H102.064C102.372 22.0448 102.54 20.6443 102.54 19.1877C102.54 8.62745 93.6309 0 82.6765 0Z" fill="#9A9B9B"/>
<path d="M101.335 27.4229C98.5338 34.7618 91.2495 40.0279 82.6765 40.0279C74.1035 40.0279 66.7632 34.7618 63.9895 27.4229H101.335Z" fill="#9A9B9B"/>
</svg>
