<svg width="300" height="159" viewBox="0 0 300 159" fill="none" xmlns="http://www.w3.org/2000/svg">
<path d="M143.32 0.0702237C128.203 0.538974 116.93 1.60538 103.652 3.82022C59.3203 11.2382 23.4492 29.7304 8.16797 53.039C3.72656 59.8124 1.18359 66.5741 0.269531 74.0624C-0.0117188 76.4296 -0.0117188 81.6562 0.269531 84.0234C1.91016 97.3945 9.22266 109.57 22.3242 120.715C32.0508 128.988 44.918 136.418 59.5781 142.219C81 150.703 105.867 155.93 132.539 157.559C138.926 157.945 141.938 158.027 150.176 158.016C158.355 158.016 161.215 157.945 167.695 157.559C194.133 155.988 219.609 150.621 240.82 142.148C265.746 132.199 284.051 118.523 293.438 102.832C294.41 101.203 296.262 97.4765 296.906 95.8593C297.973 93.1405 298.816 90.3163 299.344 87.6562C299.918 84.7851 300 83.6952 300 79.0429C300 74.4023 299.918 73.3007 299.344 70.4296C296.004 53.578 282.598 38.0155 260.449 25.289C248.297 18.3046 232.629 12.1757 216.152 7.96866C199.066 3.59757 181.852 1.13663 161.953 0.234286C159.363 0.117099 145.734 -8.8852e-05 143.32 0.0702237ZM157.383 8.08585C168.504 8.39054 178.594 9.22257 188.73 10.6757C217.09 14.7187 242.355 23.2148 261.27 35.0859C278.449 45.8554 288.996 58.8398 291.562 72.3632C292.371 76.6288 292.371 81.6913 291.551 85.8398C287.52 106.254 265.91 124.758 231.738 137.051C198.012 149.18 154.219 153.141 113.613 147.703C85.3242 143.93 60.2109 135.809 40.8398 124.184C31.1836 118.383 23.3086 111.738 17.6484 104.59C15.1055 101.367 12.7031 97.4296 11.2148 93.9843C5.83594 81.5859 7.23047 68.789 15.2578 56.8007C21.4453 47.5663 31.3359 39.1288 44.7305 31.664C62.0273 22.0194 84.4219 14.8124 108.727 11.0741C124.184 8.70694 141.41 7.64054 157.383 8.08585Z" fill="#9A9B9B"/>
<path d="M144.727 13.031C112.348 13.5466 81.1172 19.9568 56.8945 31.0662C39.5273 39.0232 26.4023 49.0193 19.2773 59.7068C15.9727 64.6638 14.1797 69.0818 13.2773 74.4724C12.9727 76.324 12.9727 81.7498 13.2773 83.6131C14.168 88.9802 16.1367 93.7732 19.4648 98.6716C29.2617 113.121 49.9922 126.152 76.4648 134.531C109.453 144.961 150.234 147.867 188.203 142.488C214.559 138.761 238.313 130.992 256.336 120.211C272.32 110.648 282.621 99.3865 285.984 87.7966C287.918 81.1287 287.602 74.1209 285.047 67.5349C280.219 55.0193 267.41 43.1365 248.379 33.5154C231.305 24.8904 211.02 18.8552 188.145 15.5974C174.047 13.5935 160.336 12.7732 144.727 13.031ZM162.363 16.5115C180.797 17.4607 196.008 19.6287 211.43 23.4959C241.066 30.9373 265.266 44.2732 276.738 59.4724C279.539 63.1873 281.719 67.4177 282.832 71.3084C287.063 86.0857 279.059 100.98 259.863 114.047C251.789 119.554 241.406 124.734 230.449 128.754C209.52 136.429 185.602 140.765 158.965 141.691C154.594 141.844 141.574 141.773 137.637 141.574C109.887 140.156 86.0977 135.363 65.2031 126.984C51.2109 121.383 39.5391 114.469 30.9141 106.676C23.2266 99.7498 18.3281 92.0506 16.8281 84.5857C16.0078 80.4959 16.125 76.0076 17.1563 72.0701C18.1523 68.2381 20.1797 64.0427 22.7461 60.4451C28.3945 52.5584 37.6641 44.9529 49.6289 38.3787C53.2617 36.3865 59.3555 33.5037 63.8555 31.6521C85.1016 22.8982 110.977 17.6482 138.34 16.5232C140.016 16.4529 141.809 16.3826 142.324 16.3591C144.352 16.2771 160.043 16.3943 162.363 16.5115Z" fill="#9A9B9B"/>
<path d="M73.2305 37.3828C73.0898 37.8398 73.1016 37.8516 73.5703 38.3672C74.1328 38.9766 74.2383 39.293 74.1328 40.0898C74.0859 40.418 71.6016 47.8242 68.6133 56.5664C65.6133 65.3086 63.1641 72.5039 63.1641 72.5625C63.1641 72.6094 68.6367 72.6562 75.3281 72.6562H87.4805L88.9219 68.5195C89.707 66.2461 90.3516 64.3477 90.3516 64.3008C90.3516 64.2539 87.1875 64.2187 83.3203 64.2187C79.4531 64.2187 76.2891 64.1719 76.2891 64.125C76.2891 64.0781 78.375 57.9844 80.918 50.5898C83.4609 43.1953 85.5469 37.0898 85.5469 37.0312C85.5469 36.9609 83.2734 36.9141 79.4531 36.9141H73.3711L73.2305 37.3828Z" fill="#9A9B9B"/>
<path d="M108.879 37.3945C108.738 37.8516 108.75 37.875 109.113 38.2852C109.441 38.6719 109.477 38.7656 109.43 39.3164C109.406 39.6445 109.219 40.2656 109.02 40.6875C108.82 41.1211 107.203 43.8867 105.434 46.8398C103.664 49.793 99.5156 56.7422 96.211 62.2852C92.9063 67.8281 90.1524 72.4336 90.082 72.5039C90 72.6211 91.0313 72.6562 95.1914 72.6562H100.406L102.609 68.7539L104.824 64.8633L110.25 64.8281L115.664 64.8047V68.1094C115.664 69.9375 115.699 71.707 115.734 72.0352L115.816 72.6562H120.504H125.191L125.121 71.8594C125.074 71.4258 124.617 63.457 124.102 54.1406C123.574 44.8242 123.129 37.1367 123.105 37.0547C123.059 36.9492 121.547 36.9141 116.039 36.9141H109.02L108.879 37.3945ZM115.348 50.2383C115.395 52.0781 115.43 54.5039 115.43 55.6289V57.6562H112.207C110.438 57.6562 108.984 57.6094 108.984 57.5508C108.984 57.4805 113.531 49.3477 114.68 47.3672C115.23 46.4297 115.266 46.5703 115.348 50.2383Z" fill="#9A9B9B"/>
<path d="M137.52 37.3242C137.426 37.5469 137.344 37.7578 137.344 37.8047C137.344 37.8516 137.59 38.1445 137.883 38.4609L138.434 39.0469L138.363 39.8789C138.316 40.6055 137.52 43.0195 132.891 56.543C129.902 65.2383 127.441 72.4336 127.418 72.5039C127.371 72.6211 128.309 72.6562 131.848 72.6562H136.348L140.215 61.1836C142.348 54.8672 144.117 49.7344 144.152 49.7812C144.188 49.8281 145.184 54.7383 146.355 60.7031C147.527 66.668 148.547 71.7891 148.605 72.0937L148.734 72.6562H153.234C155.707 72.6562 157.734 72.6328 157.734 72.6094C157.734 72.5508 169.723 37.5117 169.863 37.1133C169.945 36.9258 169.676 36.9141 165.258 36.9141H160.57L159.527 39.9844C158.953 41.6836 157.477 46.0312 156.27 49.6523C155.051 53.2734 154.031 56.2266 154.008 56.2031C153.984 56.1797 153.141 51.8437 152.133 46.5703L150.281 36.9727L143.988 36.9375L137.684 36.9141L137.52 37.3242Z" fill="#9A9B9B"/>
<path d="M173.801 37.1719C173.754 37.3242 173.684 37.5234 173.648 37.6172C173.613 37.7109 173.789 38.0273 174.035 38.3086C174.609 38.9531 174.75 39.4453 174.598 40.2656C174.539 40.6055 172.395 46.9688 169.852 54.3984C167.309 61.8281 164.859 68.9766 164.414 70.2891L163.594 72.668L173.355 72.6211C182.766 72.5742 183.152 72.5625 184.453 72.3164C188.156 71.625 190.793 70.2656 192.984 67.9219C196.441 64.207 199.887 55.207 200.379 48.5742C200.66 44.8125 199.84 42.1875 197.707 40.0781C196.559 38.9414 195.316 38.2148 193.594 37.6875C191.367 37.0078 191.297 37.0078 182.262 36.9492L173.906 36.8906L173.801 37.1719ZM188.848 45.7148C190.395 46.1836 191.004 47.2148 190.863 49.0898C190.664 51.6094 188.344 58.3711 186.844 60.7969C186.527 61.2891 185.988 62.0039 185.625 62.3906C184.523 63.5508 183.48 63.9375 180.938 64.1016C179.25 64.2188 176.367 64.2539 176.367 64.1719C176.367 64.1367 182.426 46.5352 182.754 45.6094C182.789 45.5039 183.434 45.4688 185.438 45.4688C187.758 45.4688 188.156 45.4922 188.848 45.7148Z" fill="#9A9B9B"/>
<path d="M209.824 49.9454C209.461 50.9181 206.836 58.1603 206.836 58.1954C206.836 58.2189 210.516 58.2423 215.016 58.254C219.504 58.254 223.137 58.2892 223.066 58.3126C223.008 58.3478 218.813 59.7775 213.75 61.5001L204.551 64.629L204 66.0822C203.695 66.8908 203.461 67.5704 203.484 67.5939C203.52 67.6173 207.059 66.4806 211.371 65.0626C215.672 63.6447 221.719 61.6525 224.789 60.6447C230.016 58.922 230.379 58.7931 230.484 58.5001C230.543 58.3244 231.211 56.4962 231.973 54.4337C232.723 52.3712 233.414 50.4845 233.508 50.2384L233.66 49.8048H221.766C212.367 49.8048 209.859 49.84 209.824 49.9454Z" fill="#9A9B9B"/>
<path d="M129.492 80.1679C126.469 80.5195 123.762 81.5039 121.629 83.039C120.398 83.9297 118.57 85.8281 117.738 87.0937C115.816 89.9883 113.695 95.2383 112.617 99.7383C111 106.582 111.504 110.555 114.375 113.449C115.887 114.973 117.551 115.84 120.059 116.391C121.57 116.73 126.211 116.824 128.438 116.566C132.668 116.074 135.785 114.656 138.398 112.031C139.688 110.754 140.648 109.371 141.738 107.215C144.07 102.633 145.77 96.9492 146.262 92.0859C146.613 88.5351 145.793 85.5351 143.895 83.5078C142.195 81.6797 140.203 80.707 137.168 80.2148C135.996 80.0156 131.039 79.9922 129.492 80.1679ZM134.25 88.7695C135.164 89.039 135.797 89.5547 136.137 90.3164C136.418 90.9258 136.43 91.0547 136.371 92.2148C136.277 94.0429 135.797 95.8594 134.391 99.7265C132.27 105.539 130.781 107.355 127.641 107.988C126.539 108.211 123.785 108.187 123.023 107.941C122.379 107.742 121.629 107.121 121.289 106.523C121.031 106.055 120.996 105.867 121.008 104.766C121.02 102.926 121.559 100.91 123.246 96.3281C125.32 90.75 126.973 89.0039 130.594 88.5937C131.719 88.4531 133.523 88.5469 134.25 88.7695Z" fill="#9A9B9B"/>
<path d="M84.6211 80.8594C84.4805 81.3398 84.4805 81.3516 84.9492 81.8555C85.5 82.4531 85.6055 82.7695 85.5117 83.5547C85.4766 83.8594 82.9805 91.2187 79.9687 99.9141C76.957 108.609 74.4727 115.816 74.4375 115.922C74.3906 116.121 74.6836 116.133 79.3008 116.133H84.2109L86.3086 109.98L88.4063 103.828H90.0703H91.7461L91.9805 104.613C92.1094 105.059 92.9414 107.824 93.832 110.766L95.4375 116.133H100.395H105.34L104.988 115.16C102.75 109.125 100.781 103.711 100.781 103.629C100.781 103.582 101.297 103.406 101.93 103.266C106.09 102.258 108.598 99.293 110.391 93.2461C110.895 91.5586 111.117 90.1289 111.105 88.5352C111.105 86.0742 110.496 84.4453 109.09 83.0625C107.883 81.8672 106.23 81.1406 103.652 80.6602C102.891 80.5078 101.063 80.4727 93.7383 80.4258L84.7734 80.3672L84.6211 80.8594ZM100.781 88.8984C101.004 89.0273 101.32 89.3203 101.461 89.543C101.719 89.8945 101.742 90.0352 101.684 90.8203C101.602 91.8516 101.063 93.5273 100.547 94.3359C100.148 94.957 99.5742 95.3789 98.7188 95.6953C98.2266 95.8711 97.6172 95.9062 94.6055 95.9531L91.0547 96L91.3008 95.3086C91.4297 94.9336 91.9805 93.3633 92.5195 91.8164C93.0586 90.2695 93.5273 88.9102 93.5742 88.793C93.6563 88.5937 93.8789 88.582 97.0195 88.6172C100.148 88.6523 100.395 88.6641 100.781 88.8984Z" fill="#9A9B9B"/>
<path d="M148.477 80.8711C148.336 81.1406 148.242 81.3633 148.266 81.375C148.289 81.3867 148.512 81.5273 148.77 81.6797C149.766 82.2656 150.152 82.8281 150.328 83.9766C150.398 84.3633 150.773 91.7461 151.184 100.406L151.934 116.133L158.062 116.109L164.191 116.074L173.918 98.4023C179.273 88.6758 183.68 80.6484 183.715 80.5547C183.762 80.4141 183.082 80.3906 178.699 80.4141L173.613 80.4492L167.086 93.2812C163.5 100.336 160.5 106.125 160.441 106.148C160.266 106.207 160.219 104.988 159.961 94.3945C159.832 88.8516 159.691 83.4375 159.656 82.3477L159.574 80.3906H154.148H148.711L148.477 80.8711Z" fill="#9A9B9B"/>
<path d="M186.445 80.918L186.293 81.4453L186.773 81.9609C187.336 82.5703 187.453 83.0508 187.277 83.918C187.207 84.2695 184.699 91.6406 181.711 100.312L176.273 116.074L188.238 116.109C194.813 116.121 200.215 116.109 200.25 116.074C200.332 116.004 203.086 108.07 203.086 107.93C203.086 107.859 200.52 107.812 196.125 107.812H189.152L190.172 104.824L191.191 101.836H197.402H203.613L204.938 98.2148C205.652 96.2344 206.25 94.5469 206.25 94.4648C206.25 94.3711 204.645 94.3359 200.039 94.3359C196.629 94.3359 193.828 94.3008 193.828 94.2422C193.828 94.1953 194.25 92.9414 194.754 91.4648L195.68 88.7695L202.5 88.7109L209.332 88.6523L210.539 85.3125C211.207 83.4727 211.887 81.6211 212.039 81.1758L212.332 80.3906H199.465H186.598L186.445 80.918Z" fill="#9A9B9B"/>
<path d="M216.035 80.7891C215.941 81.0117 215.859 81.2344 215.859 81.2812C215.859 81.3281 216.105 81.6211 216.398 81.9375L216.949 82.5234L216.891 83.3555C216.832 84.082 216.059 86.4023 211.301 100.113C208.266 108.867 205.781 116.062 205.781 116.086C205.781 116.109 207.996 116.133 210.691 116.133H215.602L216.023 114.926C216.258 114.27 217.195 111.516 218.121 108.809L219.797 103.887H221.484H223.172L225 109.98L226.828 116.074L231.785 116.109C236.484 116.133 236.742 116.121 236.66 115.934C236.016 114.246 232.137 103.57 232.16 103.547C232.184 103.535 232.711 103.406 233.332 103.254C237.199 102.352 239.73 99.5508 241.477 94.2656C242.273 91.8398 242.496 90.5859 242.496 88.5937C242.496 87.1289 242.461 86.7656 242.203 85.9336C241.324 83.0273 239.156 81.4336 235.031 80.6602C234.246 80.5078 232.477 80.4727 225.141 80.4258L216.211 80.3789L216.035 80.7891ZM231.715 88.7227C231.973 88.793 232.359 89.0156 232.594 89.2266C232.98 89.5898 233.016 89.6836 233.062 90.3867C233.156 91.9102 232.207 94.3711 231.223 95.1211C230.309 95.8242 229.887 95.8945 226.031 95.9531C224.109 95.9766 222.539 95.9648 222.539 95.918C222.539 95.8711 223.09 94.2305 223.77 92.2617C224.449 90.293 225 88.6641 225 88.6406C225 88.5234 231.305 88.6055 231.715 88.7227Z" fill="#9A9B9B"/>
<path d="M61.9336 89.4844C54.5859 91.9102 48.5508 93.9141 48.5273 93.9258C48.5039 93.9492 47.8594 95.6953 47.0977 97.8164C46.3242 99.9258 45.5859 101.941 45.4688 102.281L45.2344 102.891L57.1406 102.867L69.0469 102.832L70.5586 98.6719C71.3906 96.3867 72.0703 94.5 72.0703 94.4883C72.0703 94.4648 68.3906 94.4414 63.9023 94.4297C57.5273 94.4062 55.8164 94.3594 56.1328 94.2539C56.7539 94.0547 69.832 89.6133 72.2461 88.793L74.3555 88.0664L74.5664 87.4805C74.6953 87.1523 74.9414 86.4844 75.1289 85.9805C75.3164 85.4883 75.4219 85.0781 75.375 85.0781C75.3281 85.0781 69.2813 87.0703 61.9336 89.4844Z" fill="#9A9B9B"/>
</svg>
