<svg width="300" height="81" viewBox="0 0 300 81" fill="none" xmlns="http://www.w3.org/2000/svg">
<path d="M0 40.3844V80.769H150H300V40.3844V-0.00019107H150H0V40.3844ZM263.684 21.7103C269.211 23.1375 273.644 27.1759 275.435 32.3682C276.043 34.1294 276.164 35.0707 276.164 38.2589C276.164 40.7792 276.043 42.267 275.769 42.7225L275.374 43.4209H262.5C249.777 43.4209 249.595 43.4209 249.595 44.0282C249.595 45.0302 250.779 47.2164 251.964 48.431C254.332 50.8601 258.704 52.014 262.925 51.346C265.172 51.012 268.634 49.6456 269.696 48.6739C270.273 48.1577 270.334 48.2488 272.308 53.1071L273.067 55.0504L272.186 55.7792C270.789 56.933 267.237 58.512 264.868 59.0282C261.953 59.6658 256.184 59.6658 253.573 59.0282C247.348 57.5099 242.49 53.0767 240.607 47.2468C239.453 43.6638 239.271 38.9877 240.152 35.5261C241.123 31.6091 242.368 29.3622 245.192 26.5686C247.834 23.9269 250.233 22.4998 253.421 21.7407C255.85 21.1638 261.468 21.1334 263.684 21.7103ZM51.2247 22.5605C54.0486 23.5322 55.6883 24.5039 57.8138 26.4168C60.0911 28.512 61.7611 31.1537 62.7328 34.099C63.4312 36.1941 63.5526 37.1658 63.583 40.2326C63.6134 44.3925 63.249 46.2448 61.7611 49.3419C59.8178 53.4411 55.8097 56.933 51.2247 58.512C48.8866 59.3014 48.4008 59.3622 43.8765 59.3622C39.3522 59.3622 38.8664 59.3014 36.5283 58.512C33.4615 57.4492 31.0324 55.9006 28.8158 53.5626C25.5364 50.0707 24.3219 46.9735 24.0789 41.4472C23.8057 35.0099 25.2024 31.2144 29.2713 27.1759C32.0344 24.4128 34.3117 23.0767 37.7125 22.1658C39.5648 21.6496 40.6579 21.5889 44.4838 21.68C48.4008 21.7711 49.3421 21.8925 51.2247 22.5605ZM221.721 21.8925C227.034 23.0464 230.557 26.5383 231.832 31.9431C232.196 33.4613 232.287 36.346 232.287 46.3662V58.9067H227.611H222.905L222.814 47.429C222.723 35.0403 222.662 34.6759 220.962 32.8541C218.381 30.0605 212.551 29.9694 208.725 32.5808L207.237 33.6132L207.085 46.184L206.933 58.7549L202.166 58.846L197.368 58.9371V40.5362V22.1658H202.227H207.085V23.8662V25.5666L208.33 24.4431C210.486 22.4998 213.249 21.6192 217.318 21.5889C218.866 21.5585 220.84 21.7103 221.721 21.8925ZM81.3765 40.3844V58.6031H76.5182H71.6599V40.3844V22.1658H76.5182H81.3765V40.3844ZM105.698 22.9856C105.364 23.4715 102.237 27.3885 98.7449 31.7002L92.3684 39.5646L98.0162 46.4269C101.113 50.1921 104.666 54.5039 105.911 56.0221L108.188 58.7549L102.298 58.846C99.0789 58.8763 96.2551 58.846 96.0729 58.7852C95.6781 58.6334 81.6802 40.7792 81.6802 40.4148C81.6802 40.1719 90.0607 28.4209 93.5526 23.7447L94.7672 22.1658H100.536H106.306L105.698 22.9856ZM125.526 33.4613C127.318 39.686 128.866 44.9998 128.957 45.2427C129.079 45.6678 130.658 41.3257 135.182 27.8439L137.095 22.1658H141.346H145.597L149.15 32.095C151.093 37.5909 152.915 42.9047 153.219 43.9371C153.492 44.9694 153.826 45.7589 153.947 45.6982C154.069 45.6071 154.342 44.6962 154.555 43.6638C154.737 42.601 156.103 37.3784 157.561 32.0342L160.202 22.3176L164.97 22.2265C168.704 22.1658 169.706 22.2265 169.585 22.5302C169.524 22.7427 167.611 28.8763 165.334 36.1334C163.057 43.3905 160.506 51.4978 159.686 54.1091L158.168 58.9067H153.978C150.243 58.9067 149.727 58.846 149.545 58.3601C147.996 54.5342 141.437 37.0747 141.194 36.1334L140.86 34.8581L139.676 38.2893C139.008 40.2022 137.004 45.5767 135.182 50.2528L131.903 58.7549H127.834H123.765L117.905 40.5362C114.686 30.516 112.045 22.2873 112.045 22.2265C112.045 22.1962 114.352 22.1658 117.146 22.1658H122.277L125.526 33.4613ZM185.83 40.3844V58.6031H181.123H176.417V40.3844V22.1658H181.123H185.83V40.3844Z" fill="#9A9B9B"/>
<path d="M253.603 30.1821C251.235 31.3056 249.838 33.0971 249.049 35.8906L248.745 37.0444H257.551H266.387L266.174 35.5869C265.901 33.5829 264.595 31.6396 262.834 30.5161C261.468 29.6963 261.073 29.6052 258.279 29.5141C255.547 29.4533 255.03 29.5141 253.603 30.1821Z" fill="#9A9B9B"/>
<path d="M39.2004 31.3057C37.2875 32.2774 36.4069 33.1579 35.1923 35.5263C34.5547 36.7409 34.4636 37.2875 34.4636 40.3846C34.4636 43.7855 34.4939 43.9373 35.496 45.8199C37.3785 49.2207 40.5668 50.9211 44.6053 50.6478C48.249 50.3745 50.9211 48.5527 52.5 45.2429C53.1984 43.7855 53.2895 43.1782 53.2895 40.5365C53.2895 37.834 53.1984 37.3178 52.4393 35.7693C51.4069 33.6438 49.0992 31.5182 47.1559 30.8502C46.336 30.5769 44.7571 30.3644 43.4211 30.3644C41.417 30.3644 40.8097 30.4859 39.2004 31.3057Z" fill="#9A9B9B"/>
</svg>
