<svg width="301" height="81" viewBox="0 0 301 81" fill="none" xmlns="http://www.w3.org/2000/svg">
<path d="M125.429 36.8437C124.729 37.2437 123.93 37.6936 123.08 37.3936C122.03 36.9937 122.03 35.494 122.73 35.144C138.927 26.1955 156.724 28.8451 166.972 35.294C167.222 35.444 168.172 36.4438 167.422 37.2936C167.022 37.7436 166.122 37.7436 165.323 37.3436C150.825 29.7449 137.627 30.1948 125.429 36.8437Z" fill="#9A9B9B"/>
<path d="M125.729 27.8456C130.528 25.746 135.528 24.6462 140.677 24.2462C144.976 23.8963 149.125 24.1962 153.475 24.8961C157.874 25.596 161.723 26.9958 165.673 28.7955C167.022 29.3954 168.322 29.9953 169.522 30.9951C170.422 31.695 170.372 32.4949 170.122 33.1947C169.722 34.5945 168.072 34.4945 167.122 33.8946C153.175 25.846 136.477 26.6958 122.43 33.8446C121.58 34.2946 120.08 34.3445 119.63 33.1947C118.98 31.495 120.38 30.3952 121.73 29.5454C121.93 29.4454 121.53 29.6453 121.73 29.5454C123.88 28.3955 124.629 28.3456 125.729 27.8456Z" fill="#9A9B9B"/>
<path d="M113.831 17.3972C116.631 17.3972 118.88 15.1475 118.88 12.348C118.88 9.54846 116.631 7.29883 113.831 7.29883C111.032 7.29883 108.782 9.54846 108.782 12.348C108.782 15.1475 111.032 17.3972 113.831 17.3972Z" fill="#9A9B9B"/>
<path d="M119.08 28.0456C121.88 28.0456 124.129 25.796 124.129 22.9964C124.129 20.1969 121.88 17.9473 119.08 17.9473C116.281 17.9473 114.031 20.1969 114.031 22.9964C114.031 25.796 116.281 28.0456 119.08 28.0456Z" fill="#9A9B9B"/>
<path d="M131.328 23.7961C134.128 23.7961 136.377 21.5464 136.377 18.7469C136.377 15.9474 134.128 13.6978 131.328 13.6978C128.529 13.6978 126.279 15.9474 126.279 18.7469C126.279 21.5464 128.579 23.7961 131.328 23.7961Z" fill="#9A9B9B"/>
<path d="M128.679 12.0485C131.478 12.0485 133.728 9.79888 133.728 6.99935C133.728 4.19982 131.478 1.9502 128.679 1.9502C125.879 1.9502 123.63 4.19982 123.63 6.99935C123.63 9.79888 125.879 12.0485 128.679 12.0485Z" fill="#9A9B9B"/>
<path d="M144.426 21.6467C147.226 21.6467 149.475 19.397 149.475 16.5975C149.475 13.798 147.226 11.5483 144.426 11.5483C141.627 11.5483 139.377 13.798 139.377 16.5975C139.377 19.397 141.627 21.6467 144.426 21.6467Z" fill="#9A9B9B"/>
<path d="M144.426 10.1984C147.226 10.1984 149.475 7.94878 149.475 5.14925C149.475 2.34972 147.226 0.100098 144.426 0.100098C141.627 0.100098 139.377 2.34972 139.377 5.14925C139.377 7.94878 141.627 10.1984 144.426 10.1984Z" fill="#9A9B9B"/>
<path d="M157.774 23.2463C160.573 23.2463 162.823 20.9966 162.823 18.1971C162.823 15.3976 160.573 13.1479 157.774 13.1479C154.974 13.1479 152.725 15.3976 152.725 18.1971C152.725 20.9966 154.974 23.2463 157.774 23.2463Z" fill="#9A9B9B"/>
<path d="M160.173 12.0485C162.973 12.0485 165.223 9.79888 165.223 6.99935C165.223 4.19982 162.973 1.9502 160.173 1.9502C157.374 1.9502 155.124 4.19982 155.124 6.99935C155.124 9.79888 157.374 12.0485 160.173 12.0485Z" fill="#9A9B9B"/>
<path d="M170.422 28.0456C173.221 28.0456 175.471 25.796 175.471 22.9964C175.471 20.1969 173.221 17.9473 170.422 17.9473C167.622 17.9473 165.373 20.1969 165.373 22.9964C165.373 25.796 167.622 28.0456 170.422 28.0456Z" fill="#9A9B9B"/>
<path d="M175.221 17.3972C178.02 17.3972 180.27 15.1475 180.27 12.348C180.27 9.54846 178.02 7.29883 175.221 7.29883C172.421 7.29883 170.172 9.54846 170.172 12.348C170.172 15.1475 172.421 17.3972 175.221 17.3972Z" fill="#9A9B9B"/>
<path d="M65.2392 43.7928C67.1889 44.5427 68.1388 46.0925 69.3886 47.4422C71.5882 49.7918 73.4879 52.1414 75.8875 54.2411C76.0374 54.3911 76.4874 54.3911 76.5874 54.2411C79.6368 50.6417 82.0864 46.9423 85.8358 44.0428C87.8855 42.4431 91.1849 43.5929 91.8348 46.3424C92.1348 47.6422 91.6848 48.892 90.985 49.8418C87.4355 54.5411 83.9861 58.3904 80.3867 62.8397C80.2867 67.6889 80.3867 71.8382 80.3867 76.9373C80.3867 78.937 77.9871 80.5367 76.3874 80.4867C75.2376 80.4867 73.8378 79.9868 73.0879 78.687C72.738 78.0871 72.488 77.3372 72.488 76.7873C72.2881 72.1381 72.0881 67.5389 72.0881 62.9396C66.939 56.3907 60.1901 50.6417 59.8901 48.2421C59.6402 45.3926 61.6898 42.3931 65.2392 43.7928Z" fill="#9A9B9B"/>
<path d="M125.879 72.1881V47.4423C125.879 41.1433 117.181 42.1432 117.481 47.2923V78.0872C117.481 78.0872 117.481 80.6367 120.58 80.4368H134.278C134.278 80.4368 138.227 80.5368 138.477 76.6374C138.477 76.6374 138.427 73.238 135.228 72.5381L126.329 72.4881C126.329 72.4881 125.729 72.3381 125.879 71.7382" fill="#9A9B9B"/>
<path d="M102.233 65.0394C102.283 65.0394 104.033 65.0894 104.033 65.0394C104.083 63.0898 104.033 60.7901 104.033 58.8905C102.583 60.7901 101.383 62.4899 99.9835 64.3895C99.8335 64.5895 99.7835 64.9894 100.183 64.9894C100.883 65.0394 101.833 64.9394 102.233 65.0394ZM112.381 76.3875C112.031 79.787 109.532 80.5368 108.032 80.4369C108.182 80.4868 107.782 80.4369 108.032 80.4369C106.932 80.2369 104.883 79.837 104.383 77.4374C104.083 75.8876 104.033 73.488 103.983 73.1381C103.983 73.0381 93.8345 73.0881 93.8345 73.0881C92.0348 75.3877 90.2851 78.1872 88.6853 79.787C88.0854 80.3369 87.2356 80.4868 86.5857 80.4868C84.986 80.3869 83.2362 79.537 82.6363 77.9373C82.2864 76.9374 81.9365 75.7876 82.6363 74.7878C87.4355 67.889 91.6848 62.1899 96.634 55.491C99.3336 51.7916 101.783 48.5422 104.583 44.9928C106.032 43.1431 107.232 43.0931 108.582 43.0931C108.482 43.0931 112.131 42.9931 112.431 46.3425L112.381 76.3875Z" fill="#9A9B9B"/>
<path d="M44.9426 52.0416C39.4436 52.0416 34.9443 56.4909 34.9443 62.04C34.9443 67.539 39.3936 72.0383 44.9426 72.0383C50.4417 72.0383 54.941 67.539 54.941 62.04C54.941 56.4909 50.4417 52.0416 44.9426 52.0416ZM63.4895 62.04C63.4895 72.3382 55.1409 80.6868 44.8427 80.6868C34.5444 80.6868 26.2458 72.3382 26.2458 62.04C26.2458 51.7417 34.5944 43.3931 44.8427 43.3931C55.1409 43.3931 63.4895 51.7417 63.4895 62.04Z" fill="#9A9B9B"/>
<path d="M149.625 59.6404C150.475 53.0915 154.874 47.5424 160.723 45.0428C167.772 42.0433 176.221 43.743 181.17 49.892C182.22 51.2418 181.92 52.9915 180.92 54.2913C179.87 55.691 178.22 56.3909 176.771 55.791C174.271 54.8412 172.571 52.5915 169.772 51.9916C164.073 50.7918 158.674 54.5912 157.824 60.1903C157.024 65.7393 160.173 71.0385 165.822 72.0883C169.772 72.8382 172.871 70.6885 176.121 68.3889C177.67 67.2891 180.22 67.839 181.17 69.7887C181.77 70.9385 182.17 72.1883 181.47 73.4381C178.82 78.1373 173.421 79.787 168.422 80.2869C164.623 80.6369 161.123 79.3371 157.824 77.3374C151.875 73.738 148.725 66.7892 149.625 59.6404Z" fill="#9A9B9B"/>
<path d="M216.114 76.837C216.114 76.837 215.614 80.0865 220.163 80.4864C220.163 80.4864 223.763 80.6364 224.213 76.837V59.4399C224.213 59.2399 224.563 59.04 224.663 59.1899L235.511 78.6867C235.511 78.6867 236.761 80.5364 239.36 80.4364C239.36 80.4364 243.56 80.7863 244.809 76.837L244.909 75.5872V46.3921C243.41 42.2928 238.21 42.2428 236.911 46.3921V63.4892C236.911 63.4892 236.961 64.0891 236.561 64.0391C233.061 58.0901 229.912 51.7912 226.212 45.6922C225.063 43.8425 221.913 42.7427 219.714 43.6425C217.414 44.5924 216.814 46.0421 216.464 46.742C216.464 46.742 216.014 47.3919 216.014 48.2918V76.687" fill="#9A9B9B"/>
<path d="M196.267 64.9392C196.667 64.9392 196.567 64.4893 196.467 64.2894C195.068 62.4397 193.868 60.74 192.418 58.7903C192.368 60.69 192.318 62.9896 192.418 64.9392C192.418 64.9892 194.168 64.9392 194.218 64.9392C194.568 64.8893 195.568 64.9392 196.267 64.9392ZM184.069 76.2874V46.1924C184.369 42.8929 188.019 42.9429 187.919 42.9429C189.219 42.9429 190.468 43.0429 191.918 44.8426C194.718 48.392 197.117 51.6915 199.867 55.3409C204.816 61.9897 209.115 67.7388 213.864 74.6376C214.564 75.6375 214.214 76.7873 213.864 77.7371C213.265 79.3868 211.515 80.1867 209.965 80.2867C209.315 80.3367 208.465 80.1867 207.865 79.6368C206.216 78.0371 204.516 75.2875 202.716 72.9379C202.716 72.9379 192.568 72.8879 192.568 72.9879C192.518 73.3378 192.468 75.6875 192.168 77.2872C191.668 79.7368 189.619 80.1367 188.519 80.2867C188.769 80.2867 188.369 80.2867 188.519 80.2867C186.869 80.4367 184.419 79.7368 184.069 76.2874Z" fill="#9A9B9B"/>
<path d="M262.406 76.7875C262.406 76.7875 261.906 80.0369 266.456 80.4369C266.456 80.4369 270.005 80.5868 270.505 76.7875V59.4404C270.505 59.2404 270.855 58.9904 270.955 59.1904L281.803 78.6372C281.803 78.6372 283.053 80.4869 285.652 80.3869C285.652 80.3869 289.852 80.7368 291.102 76.7875L291.202 75.5377V46.3426C289.702 42.2432 284.503 42.2432 283.203 46.3426V63.4397C283.203 63.4397 283.253 64.0396 282.853 63.9896C279.304 58.0406 276.204 51.7417 272.505 45.6427C271.355 43.793 268.205 42.6932 266.006 43.593C263.706 44.5429 263.106 45.9926 262.756 46.6925C262.756 46.6925 262.306 47.3424 262.306 48.2422V76.5375" fill="#9A9B9B"/>
<path d="M249.259 47.5425V76.0877C249.259 76.0877 249.059 80.287 253.458 80.287C257.857 80.287 257.907 76.2377 257.907 76.2377" fill="#9A9B9B"/>
<path d="M258.007 76.2372V47.692C258.007 47.692 258.207 43.4927 253.808 43.4927C249.409 43.4927 249.359 47.542 249.359 47.542" fill="#9A9B9B"/>
<path d="M12.948 59.7904C15.2976 59.7904 17.2472 58.0407 17.2472 55.841C17.2472 53.6414 15.3476 51.8917 12.948 51.8917C10.5484 51.8917 8.64868 53.6414 8.64868 55.841C8.64868 57.9907 10.5984 59.7904 12.948 59.7904ZM4.04945 46.6426C6.34906 44.7429 7.54886 43.993 11.2482 43.4931C14.3977 43.0931 17.1473 44.3929 17.5472 44.5429C22.4964 46.1926 25.7958 51.8917 25.1459 57.4907C24.746 60.8402 22.7963 63.8397 20.2967 66.0393C22.6963 71.2884 27.1456 74.7379 26.3957 77.3374C25.8958 79.1371 25.3959 79.637 23.7962 80.2869C22.7963 80.7369 21.2966 80.5869 20.4467 79.887C16.2974 76.3876 14.1478 71.2884 10.6483 67.6391C9.79849 66.7392 9.39855 67.1391 9.39855 67.6391C9.39855 71.8883 9.44855 75.0878 9.24858 77.1375C9.0986 78.3873 7.9488 79.837 7.14893 80.2369C4.8993 81.3368 1.89981 79.987 1.49987 77.4874C1.44988 77.0375 0.799988 75.1378 0.799988 66.2893C0.799988 61.94 0.799988 60.9902 0.799988 54.0913C0.849979 51.2918 2.19975 48.1923 4.04945 46.6426Z" fill="#9A9B9B"/>
<path d="M297.251 75.9874C297.701 75.9874 298.001 75.8874 298.001 75.4375C298.001 74.9876 297.451 74.9876 297.051 74.9876H296.101V75.9874H297.251ZM298.7 78.337H297.751L296.801 76.7373H296.101V78.337H295.251V74.2877H297.251C298.2 74.2877 298.85 74.4377 298.85 75.5375C298.85 76.2874 298.45 76.6873 297.751 76.7373L298.7 78.337ZM293.851 76.3373C293.851 78.0871 295.201 79.4368 296.901 79.4368C298.6 79.4368 299.95 78.0871 299.95 76.3373C299.95 74.5876 298.6 73.2879 296.901 73.2879C295.251 73.2879 293.851 74.5876 293.851 76.3373ZM293.001 76.3373C293.001 74.1377 294.701 72.438 296.901 72.438C299.05 72.438 300.8 74.1877 300.8 76.3373C300.8 78.537 299.1 80.2867 296.901 80.2867C294.751 80.2867 293.001 78.537 293.001 76.3373Z" fill="#9A9B9B"/>
</svg>
