<svg width="156" height="101" viewBox="0 0 156 101" fill="none" xmlns="http://www.w3.org/2000/svg">
<path d="M147.354 0.793945H8.29987C3.7179 0.793945 0 4.59653 0 9.2876V92.3003C0 96.9924 3.7161 100.794 8.29987 100.794H147.354C151.937 100.794 155.654 96.9914 155.654 92.3003V9.2876C155.654 4.59573 151.938 0.793945 147.354 0.793945ZM30.9144 71.5925L21.0692 35.4925C17.665 33.5616 13.7805 32.0096 9.4368 30.934L9.57814 30.0693H27.4351C29.8405 30.1608 31.7849 30.9462 32.4551 33.5782L36.3374 52.6758L36.3382 52.678L37.4933 58.4378L48.3351 30.0955H60.0656L42.6313 71.5768L30.9144 71.5909V71.5925ZM68.692 71.6279H57.6228L57.6226 71.6277L64.5465 30.0643H75.6205L68.692 71.6279ZM87.963 72.2445C82.9967 72.1925 78.2139 71.1875 75.6271 70.0273L77.1815 60.723L78.6081 61.3835C82.2451 62.9352 84.5998 63.5651 89.0321 63.5651C92.215 63.5651 95.63 62.2924 95.6575 59.5066C95.6781 57.6872 94.2288 56.3881 89.9185 54.3509C85.718 52.3625 80.1534 49.0312 80.2149 43.059C80.2805 34.98 87.9884 29.3426 98.9309 29.3426C103.224 29.3426 106.662 30.2463 108.856 31.0883L107.355 40.0969L106.363 39.617C104.319 38.7752 101.695 37.9674 98.0745 38.0246C93.7392 38.0246 91.7326 39.8723 91.7326 41.5998C91.7073 43.5465 94.0779 44.8298 97.9487 46.7521C104.338 49.7187 107.288 53.3169 107.246 58.0448C107.16 66.6722 99.6036 72.2445 87.963 72.2445ZM135.941 71.6411C135.941 71.6411 134.925 66.8682 134.594 65.4133C132.979 65.4133 121.682 65.3953 120.411 65.3953C119.981 66.5194 118.08 71.6411 118.08 71.6411H106.451L122.897 33.5512C124.062 30.8447 126.045 30.1045 128.697 30.1045H137.253L146.217 71.6419H135.941V71.6411Z" fill="#9A9B9B"/>
<path d="M123.599 56.8939C124.514 54.4989 128.011 45.2751 128.011 45.2751C127.945 45.3861 128.92 42.8689 129.479 41.3086L130.228 44.8918C130.228 44.8918 132.348 54.813 132.791 56.8935H123.599L123.599 56.8939Z" fill="#9A9B9B"/>
</svg>
