<svg width="301" height="69" viewBox="0 0 301 69" fill="none" xmlns="http://www.w3.org/2000/svg">
<path d="M300.5 0H0.5V68.5714H300.5L279.071 33.4286L300.5 0ZM292.5 64H5.07143V4.57143H292.5L274.214 33.4286L292.5 64Z" fill="#9A9B9B"/>
<path d="M68.7857 45.7144C65.9286 45.7144 63.0714 44.2858 61.0714 42.2858C59.0714 40.2858 57.9286 37.4286 57.9286 34.2858C57.9286 31.1429 59.0714 28.2858 61.0714 26.2858C63.0714 24.2858 65.6429 22.8572 68.7857 22.8572C73.3571 22.8572 77.0714 25.1429 78.7857 30.0001H83.3571C81.6429 22.8572 75.9286 18.5715 69.0714 18.5715C64.7857 18.5715 61.0714 20.2858 58.5 23.1429C55.9286 26.0001 54.2143 30.0001 54.2143 34.2858C54.2143 38.5715 55.9286 42.5715 58.5 45.4286C61.0714 48.2858 65.0714 50.0001 69.0714 50.0001C76.2143 50.0001 81.9286 45.1429 83.6429 38.0001H79.3571C77.6429 43.1429 73.6429 45.7144 68.7857 45.7144ZM91.9286 23.4286H97.6429V45.7144H91.9286V50.0001H107.929V45.7144H102.214V23.4286H107.929V18.8572H91.9286V23.4286ZM40.5 32.8572C43.6429 30.5715 43.9286 27.1429 42.7857 24.0001C41.6429 21.1429 39.0714 18.8572 35.3571 18.8572H22.2143V50.0001H36.2143C42.2143 50.0001 45.0714 45.4286 45.0714 40.5715C45.3571 37.7144 43.9286 34.5715 40.5 32.8572ZM26.7857 23.1429H35.3571C40.2143 23.1429 40.2143 31.1429 35.3571 31.1429H26.7857V23.1429ZM36.2143 45.7144H26.7857V35.7144H36.2143C39.3571 35.7144 40.7857 38.2858 40.7857 40.5715C40.7857 43.1429 39.3571 45.7144 36.2143 45.7144ZM119.357 44.8572C117.929 44.8572 116.786 46.0001 116.786 47.7144C116.786 49.1429 117.929 50.5715 119.357 50.5715C121.071 50.5715 122.214 49.1429 122.214 47.7144C122.214 45.7144 121.071 44.8572 119.357 44.8572ZM224.214 18.5715C219.929 18.5715 215.929 20.2858 213.071 23.4286C210.214 26.2858 208.5 30.2858 208.5 34.5715C208.5 38.8572 210.214 42.8572 213.071 45.7144C215.929 48.5715 219.929 50.2858 224.214 50.2858C228.5 50.2858 232.5 48.5715 235.357 45.7144C238.214 42.8572 239.929 38.8572 239.929 34.5715C239.929 30.2858 238.214 26.2858 235.357 23.4286C232.5 20.2858 228.5 18.5715 224.214 18.5715ZM232.214 42.5715C230.214 44.5715 227.357 46.0001 224.214 46.0001C221.071 46.0001 218.214 44.5715 216.214 42.5715C214.214 40.5715 212.786 37.7144 212.786 34.5715C212.786 31.4286 213.929 28.5715 216.214 26.5715C218.214 24.5715 221.071 23.1429 224.214 23.1429C227.357 23.1429 230.214 24.5715 232.214 26.5715C234.214 28.5715 235.357 31.4286 235.357 34.5715C235.357 37.7144 234.214 40.5715 232.214 42.5715ZM247.643 23.4286H253.357V45.7144H247.643V50.0001H263.643V45.7144H257.929V23.4286H263.643V18.8572H247.643V23.4286ZM195.357 32.8572C198.5 30.5715 198.786 27.1429 197.643 24.0001C196.5 21.1429 193.929 18.8572 190.214 18.8572H177.357V50.0001H191.357C197.357 50.0001 200.214 45.4286 200.214 40.5715C200.214 37.7144 198.786 34.5715 195.357 32.8572ZM181.643 23.1429H190.214C195.071 23.1429 195.071 31.1429 190.214 31.1429H181.929V23.1429H181.643ZM191.071 45.7144H181.643V35.7144H191.071C194.214 35.7144 195.643 38.2858 195.643 40.5715C195.643 43.1429 194.214 45.7144 191.071 45.7144ZM153.071 45.7144C150.214 45.7144 147.357 44.2858 145.357 42.2858C143.357 40.2858 142.214 37.4286 142.214 34.2858C142.214 31.1429 143.357 28.2858 145.357 26.2858C147.357 24.2858 149.929 22.8572 153.071 22.8572C157.643 22.8572 161.357 25.1429 163.071 30.0001H167.357C165.643 22.8572 159.929 18.5715 153.071 18.5715C148.786 18.5715 145.071 20.2858 142.5 23.1429C139.929 26.0001 138.214 30.0001 138.214 34.2858C138.214 38.5715 139.929 42.5715 142.5 45.4286C145.071 48.2858 149.071 50.0001 153.071 50.0001C160.214 50.0001 165.929 45.1429 167.643 38.0001H163.357C161.929 43.1429 157.929 45.7144 153.071 45.7144ZM257.071 11.7144H261.929V15.7144H257.071V11.7144ZM249.357 11.7144H254.214V15.7144H249.357V11.7144Z" fill="#9A9B9B"/>
</svg>
