<svg width="1615" height="971" viewBox="0 0 1615 971" fill="none" xmlns="http://www.w3.org/2000/svg">
<path fill-rule="evenodd" clip-rule="evenodd" d="M1146.77 12.7064C981.425 -35.8017 807.797 58.8342 758.961 224.082L687.541 465.747V465.747C682.524 482.721 663.636 492.426 646.743 487.144C645.327 486.702 643.905 486.271 642.476 485.852C511.282 447.362 372.783 522.237 334.033 653.355C295.284 784.472 370.957 922.181 502.151 960.67C593.728 987.536 688.863 959.168 751.149 894.991C787.436 857.602 848.501 838.119 898.497 852.786V852.786L1142.89 924.487C1308.24 972.995 1481.87 878.359 1530.7 713.112L1602.12 471.446C1650.96 306.198 1556.51 132.915 1391.17 84.407L1146.77 12.7064Z" fill="#084D13"/>
<path fill-rule="evenodd" clip-rule="evenodd" d="M449.908 401.581C445.563 396.516 445.184 388.943 449.494 383.852C522.385 297.783 543.184 195.683 493.406 137.646C434.365 68.8097 298.393 88.0268 189.703 180.569C81.0142 273.111 40.7664 403.935 99.8075 472.772V472.772C104.152 477.837 104.532 485.41 100.221 490.501C27.3304 576.571 6.53072 678.67 56.3088 736.707C115.35 805.544 251.322 786.326 360.012 693.784C468.701 601.242 508.949 470.418 449.908 401.581V401.581Z" fill="#084D13"/>
</svg>
