<svg width="1579" height="938" viewBox="0 0 1579 938" fill="none" xmlns="http://www.w3.org/2000/svg">
<path fill-rule="evenodd" clip-rule="evenodd" d="M1116.24 12.4124C950.298 -34.7366 775.054 60.4828 724.822 225.091L659.288 439.846C658.36 442.889 657.48 445.935 656.649 448.983C652.191 465.338 634.365 474.984 618.021 470.34V470.34L605.082 466.664C570.651 456.881 535.699 455.07 502.256 460.128C475.817 464.127 448.345 443.238 438.6 418.295C434.157 406.923 427.862 396.458 419.631 387.163V387.163C415.333 382.311 414.954 374.928 419.204 370.068C491.862 286.989 512.597 188.432 462.983 132.411C404.14 65.9689 268.625 84.5174 160.301 173.84C51.9769 263.163 11.8643 389.435 70.7071 455.877V455.877C75.0043 460.729 75.3842 468.112 71.1333 472.973C-1.52375 556.052 -22.2596 654.608 27.3545 710.63C69.5526 758.277 151.182 762.216 233.936 727.689C260.563 716.58 294.68 735.206 302.562 763.02C324 838.672 383.132 901.637 465.229 924.963L478.168 928.639C585.787 959.217 698.494 911.912 754.31 820.402C766.593 800.264 793.641 791.867 814.832 802.411C831.808 810.859 849.835 817.876 868.805 823.266L1108.2 891.282C1274.14 938.431 1449.38 843.212 1499.62 678.604L1565.15 463.849C1615.38 299.241 1521.58 127.578 1355.63 80.4293L1116.24 12.4124Z" fill="#FEC00A"/>
</svg>
