<svg width="100" height="100" viewBox="0 0 100 100" fill="none" xmlns="http://www.w3.org/2000/svg">
<g clip-path="url(#clip0_142_142)">
<path d="M13.5489 37.5184H14.0226C16.4787 37.5184 18.6541 37.0386 20.5489 36.0793C22.4436 35.0856 24.0752 33.6295 25.4436 31.7107L19.9699 27.5991C19.2331 28.9354 18.391 29.9291 17.4436 30.58C16.5313 31.1968 15.5138 31.5051 14.391 31.5051H13.9173C13.0401 31.5051 12.2506 31.3338 11.5489 30.9912C10.8822 30.6486 10.2857 30.1689 9.75941 29.5521C9.26817 28.9354 8.88222 28.1645 8.60151 27.2394C8.3559 26.3142 8.23309 25.2692 8.23309 24.1043V23.1792C8.23309 21.9457 8.3559 20.8664 8.60151 19.9413C8.84712 19.0162 9.19801 18.2452 9.65414 17.6285C10.1454 16.9775 10.7243 16.4806 11.391 16.138C12.0927 15.7954 12.8647 15.6241 13.7068 15.6241H14.0226C15.2507 15.6241 16.3033 15.9325 17.1805 16.5492C18.0928 17.1317 18.9523 18.1253 19.7594 19.5301L25.2857 15.6755C23.9173 13.7567 22.2507 12.3005 20.2857 11.3069C18.3559 10.279 16.1805 9.76505 13.7594 9.76505H13.3384C11.4436 9.76505 9.68923 10.1077 8.0752 10.793C6.46117 11.444 5.05765 12.3519 3.86467 13.5169C2.70677 14.6476 1.77695 16.0181 1.0752 17.6285C0.408529 19.2389 0.0751953 20.9863 0.0751953 22.8708V24.3098C0.0751953 26.1943 0.408529 27.9589 1.0752 29.6035C1.74186 31.214 2.65414 32.6016 3.81204 33.7665C5.00501 34.9314 6.42607 35.8565 8.0752 36.5419C9.72432 37.1928 11.5489 37.5184 13.5489 37.5184ZM29.3099 37.0044H37.152V22.3054C37.152 21.3461 37.2749 20.4894 37.5205 19.7357C37.7662 18.9476 38.1346 18.2966 38.6257 17.7827C39.152 17.2345 39.7662 16.8233 40.4678 16.5492C41.2047 16.275 42.0293 16.138 42.9415 16.138C44.5205 16.138 45.6784 16.5834 46.4152 17.4743C47.1872 18.3308 47.5731 19.6843 47.5731 21.5345V37.0044H55.4152V19.8899C55.4152 16.6692 54.6083 14.1679 52.9941 12.3862C51.3802 10.6045 49.082 9.71366 46.0994 9.71366C44.3451 9.71366 42.6959 10.0392 41.152 10.6902C39.6433 11.3069 38.3099 12.1806 37.152 13.3113V0H29.3099V37.0044ZM73.7459 37.5698H74.2722C76.3423 37.5698 78.2196 37.2442 79.9038 36.5932C81.623 35.9423 83.0967 35.0514 84.3248 33.9207C85.5528 32.7558 86.5001 31.3681 87.1669 29.7577C87.8335 28.1473 88.1669 26.3656 88.1669 24.4126V22.8708C88.1669 20.9178 87.8335 19.1361 87.1669 17.5257C86.5001 15.9153 85.5528 14.5448 84.3248 13.4141C83.0967 12.2491 81.623 11.3412 79.9038 10.6902C78.2196 10.0392 76.3423 9.71366 74.2722 9.71366H73.7459C71.7107 9.71366 69.8335 10.0392 68.1143 10.6902C66.4301 11.3412 64.9738 12.2491 63.7459 13.4141C62.5177 14.5448 61.5528 15.9153 60.8511 17.5257C60.1844 19.1361 59.8511 20.9178 59.8511 22.8708V24.4126C59.8511 26.3656 60.1844 28.1473 60.8511 29.7577C61.5528 31.3681 62.5177 32.7558 63.7459 33.9207C64.9738 35.0514 66.4301 35.9423 68.1143 36.5932C69.8335 37.2442 71.7107 37.5698 73.7459 37.5698ZM73.7985 31.8649C72.9212 31.8649 72.1143 31.6765 71.3774 31.2996C70.6756 30.9226 70.0617 30.4087 69.5353 29.7577C69.0441 29.0724 68.658 28.2501 68.3774 27.2908C68.1317 26.3314 68.009 25.2692 68.009 24.1043V22.9222C68.009 21.7573 68.1493 20.7122 68.4301 19.7871C68.7107 18.862 69.0967 18.091 69.588 17.4743C70.0791 16.8233 70.6756 16.3264 71.3774 15.9838C72.1143 15.6069 72.9212 15.4185 73.7985 15.4185H74.2722C75.1493 15.4185 75.9388 15.6069 76.6406 15.9838C77.3423 16.3264 77.9564 16.8233 78.4827 17.4743C79.009 18.091 79.3949 18.862 79.6406 19.7871C79.9212 20.7122 80.0617 21.7573 80.0617 22.9222V24.1043C80.0617 25.2692 79.9212 26.3314 79.6406 27.2908C79.3949 28.2501 79.009 29.0724 78.4827 29.7577C77.9914 30.4087 77.3774 30.9226 76.6406 31.2996C75.9388 31.6765 75.1493 31.8649 74.2722 31.8649H73.7985ZM10.812 68.649H11.3384C12.2857 68.649 13.198 68.5291 14.0752 68.2893C14.9524 68.0837 15.777 67.7582 16.5489 67.3128C17.3208 66.8674 18.005 66.3535 18.6015 65.7709C19.2331 65.1542 19.7594 64.4689 20.1805 63.7151V63.8693C20.2155 64.4861 20.3033 65.2228 20.4436 66.0793C20.6191 66.9016 20.812 67.5869 21.0226 68.1351H27.2331V45.4699C26.5313 44.7846 25.7244 44.1678 24.812 43.6197C23.8997 43.0372 22.8997 42.5404 21.812 42.1292C20.7594 41.7181 19.6541 41.4097 18.4962 41.2041C17.3734 40.9643 16.2155 40.8443 15.0226 40.8443H14.5489C12.4436 40.8443 10.5138 41.2041 8.75941 41.9236C7.00501 42.609 5.49625 43.5683 4.23309 44.8018C2.96993 46.0352 1.98748 47.5429 1.28572 49.3245C0.583967 51.072 0.23309 52.9908 0.23309 55.0808V56.2628C0.23309 58.1816 0.478704 59.9119 0.969932 61.4537C1.46116 62.9956 2.16291 64.2977 3.0752 65.3598C3.98748 66.4219 5.09274 67.2442 6.39098 67.8267C7.72432 68.3749 9.19801 68.649 10.812 68.649ZM13.391 62.5844C12.584 62.5844 11.8647 62.4302 11.2331 62.1219C10.6015 61.7793 10.0576 61.2996 9.60151 60.6828C9.18046 60.0661 8.86467 59.3294 8.65414 58.4728C8.44362 57.5819 8.33835 56.6054 8.33835 55.5433V54.8238C8.33835 53.5561 8.49625 52.4254 8.81204 51.4317C9.12783 50.4038 9.56643 49.5301 10.1278 48.8106C10.7243 48.091 11.4261 47.5429 12.2331 47.1659C13.0752 46.789 13.9524 46.6006 14.8647 46.6006H15.0226C15.8997 46.6006 16.7418 46.7034 17.5489 46.909C18.3559 47.1145 19.005 47.3887 19.4962 47.7313V55.5433C19.4962 56.5712 19.3384 57.5135 19.0226 58.37C18.7418 59.1924 18.3384 59.9291 17.812 60.58C17.2857 61.1968 16.6717 61.6935 15.9699 62.0705C15.2681 62.4131 14.5313 62.5844 13.7594 62.5844H13.391ZM13.5489 99.7797H14.0226C16.4787 99.7797 18.6541 99.3 20.5489 98.3407C22.4436 97.347 24.0752 95.8909 25.4436 93.9721L19.9699 89.8605C19.2331 91.1968 18.391 92.1905 17.4436 92.8414C16.5313 93.4582 15.5138 93.7665 14.391 93.7665H13.9173C13.0401 93.7665 12.2506 93.5952 11.5489 93.2526C10.8822 92.91 10.2857 92.4303 9.75941 91.8135C9.26817 91.1968 8.88222 90.4258 8.60151 89.5007C8.3559 88.5756 8.23309 87.5305 8.23309 86.3656V85.4405C8.23309 84.207 8.3559 83.1278 8.60151 82.2026C8.84712 81.2775 9.19801 80.5066 9.65414 79.8899C10.1454 79.2389 10.7243 78.742 11.391 78.3994C12.0927 78.0568 12.8647 77.8855 13.7068 77.8855H14.0226C15.2507 77.8855 16.3033 78.1938 17.1805 78.8106C18.0928 79.3931 18.9523 80.3866 19.7594 81.7915L25.2857 77.9369C23.9173 76.0181 22.2507 74.562 20.2857 73.5683C18.3559 72.5404 16.1805 72.0264 13.7594 72.0264H13.3384C11.4436 72.0264 9.68923 72.369 8.0752 73.0543C6.46117 73.7053 5.05765 74.6134 3.86467 75.7783C2.70677 76.909 1.77695 78.2794 1.0752 79.8899C0.408529 81.5003 0.0751953 83.2477 0.0751953 85.1322V86.5712C0.0751953 88.4557 0.408529 90.2203 1.0752 91.8649C1.74186 93.4753 2.65414 94.863 3.81204 96.0279C5.00501 97.1928 6.42607 98.1179 8.0752 98.8032C9.72432 99.4542 11.5489 99.7797 13.5489 99.7797ZM29.3099 99.2658H37.152V84.5668C37.152 83.6075 37.2749 82.7508 37.5205 81.9971C37.7662 81.209 38.1346 80.558 38.6257 80.0441C39.152 79.4959 39.7662 79.0847 40.4678 78.8106C41.2047 78.5364 42.0293 78.3994 42.9415 78.3994C44.5205 78.3994 45.6784 78.8448 46.4152 79.7357C47.1872 80.5922 47.5731 81.9457 47.5731 83.7959V99.2658H55.4152V82.1513C55.4152 78.9305 54.6083 76.4292 52.9941 74.6476C51.3802 72.8659 49.082 71.975 46.0994 71.975C44.3451 71.975 42.6959 72.3006 41.152 72.9515C39.6433 73.5683 38.3099 74.442 37.152 75.5727V62.2614H29.3099V99.2658ZM73.7459 99.8311H74.2722C76.3423 99.8311 78.2196 99.5056 79.9038 98.8546C81.623 98.2037 83.0967 97.3128 84.3248 96.1821C85.5528 95.0172 86.5001 93.6295 87.1669 92.0191C87.8335 90.4087 88.1669 88.627 88.1669 86.674V85.1322C88.1669 83.1792 87.8335 81.3975 87.1669 79.7871C86.5001 78.1767 85.5528 76.8062 84.3248 75.6755C83.0967 74.5106 81.623 73.6025 79.9038 72.9515C78.2196 72.3006 76.3423 71.975 74.2722 71.975H73.7459C71.7107 71.975 69.8335 72.3006 68.1143 72.9515C66.4301 73.6025 64.9738 74.5106 63.7459 75.6755C62.5177 76.8062 61.5528 78.1767 60.8511 79.7871C60.1844 81.3975 59.8511 83.1792 59.8511 85.1322V86.674C59.8511 88.627 60.1844 90.4087 60.8511 92.0191C61.5528 93.6295 62.5177 95.0172 63.7459 96.1821C64.9738 97.3128 66.4301 98.2037 68.1143 98.8546C69.8335 99.5056 71.7107 99.8311 73.7459 99.8311ZM73.7985 94.1263C72.9212 94.1263 72.1143 93.9379 71.3774 93.5609C70.6756 93.184 70.0617 92.6701 69.5353 92.0191C69.0441 91.3338 68.658 90.5115 68.3774 89.5521C68.1317 88.5928 68.009 87.5305 68.009 86.3656V85.1836C68.009 84.0186 68.1493 82.9736 68.4301 82.0485C68.7107 81.1234 69.0967 80.3524 69.588 79.7357C70.0791 79.0847 70.6756 78.5878 71.3774 78.2452C72.1143 77.8683 72.9212 77.6799 73.7985 77.6799H74.2722C75.1493 77.6799 75.9388 77.8683 76.6406 78.2452C77.3423 78.5878 77.9564 79.0847 78.4827 79.7357C79.009 80.3524 79.3949 81.1234 79.6406 82.0485C79.9212 82.9736 80.0617 84.0186 80.0617 85.1836V86.3656C80.0617 87.5305 79.9212 88.5928 79.6406 89.5521C79.3949 90.5115 79.009 91.3338 78.4827 92.0191C77.9914 92.6701 77.3774 93.184 76.6406 93.5609C75.9388 93.9379 75.1493 94.1263 74.2722 94.1263H73.7985ZM95.1271 99.9339C95.7937 99.9339 96.4077 99.8139 96.9692 99.5742C97.5656 99.3686 98.0744 99.0774 98.4955 98.7004C98.9516 98.2893 99.3024 97.8267 99.5481 97.3128C99.8287 96.7646 99.9692 96.1821 99.9692 95.5653V95.257C99.9692 94.6745 99.8287 94.1263 99.5481 93.6123C99.3024 93.0984 98.9516 92.653 98.4955 92.2761C98.0744 91.8649 97.5656 91.5565 96.9692 91.351C96.4077 91.1112 95.7937 90.9912 95.1271 90.9912C94.4603 90.9912 93.8287 91.1112 93.2323 91.351C92.6358 91.5565 92.1095 91.8649 91.6534 92.2761C91.2323 92.653 90.8989 93.0984 90.6534 93.6123C90.4077 94.1263 90.285 94.6745 90.285 95.257V95.5653C90.285 96.1821 90.4077 96.7646 90.6534 97.3128C90.8989 97.8267 91.2323 98.2893 91.6534 98.7004C92.1095 99.0774 92.6358 99.3686 93.2323 99.5742C93.8287 99.8139 94.4603 99.9339 95.1271 99.9339Z" fill="#FDCA09"/>
</g>
<defs>
<clipPath id="clip0_142_142">
<rect width="100" height="100" fill="white"/>
</clipPath>
</defs>
</svg>
